HIERARCHY
ROOT Pelvis
{
	OFFSET 0.000000 0.000000 0.000000
	CHANNELS 6 Xposition Yposition Zposition Zrotation Yrotation Xrotation 
	JOINT Left_hip
	{
		OFFSET 0.069463 -0.088608 -0.009542
		CHANNELS 3 Zrotation Yrotation Xrotation
		JOINT Left_knee
		{
			OFFSET 0.030639 -0.359740 -0.005288
			CHANNELS 3 Zrotation Yrotation Xrotation
			JOINT Left_ankle
			{
				OFFSET -0.011068 -0.376034 -0.042462
				CHANNELS 3 Zrotation Yrotation Xrotation
				JOINT Left_foot
				{
					OFFSET 0.023192 -0.053321 0.111332
					CHANNELS 3 Zrotation Yrotation Xrotation
					End Site
					{
						OFFSET 0.000000 0.000000 0.000000
					}
				}
			}
		}
	}
	JOINT Right_hip
	{
		OFFSET -0.067438 -0.088025 -0.006263
		CHANNELS 3 Zrotation Yrotation Xrotation
		JOINT Right_knee
		{
			OFFSET -0.035962 -0.366229 -0.008063
			CHANNELS 3 Zrotation Yrotation Xrotation
			JOINT Right_ankle
			{
				OFFSET 0.013608 -0.375719 -0.040481
				CHANNELS 3 Zrotation Yrotation Xrotation
				JOINT Right_foot
				{
					OFFSET -0.021034 -0.045527 0.114617
					CHANNELS 3 Zrotation Yrotation Xrotation
					End Site
					{
						OFFSET 0.000000 0.000000 0.000000
					}
				}
			}
		}
	}
	JOINT Spine1
	{
		OFFSET -0.002610 0.101823 -0.019986
		CHANNELS 3 Zrotation Yrotation Xrotation
		JOINT Spine2
		{
			OFFSET 0.004114 0.128714 -0.000938
			CHANNELS 3 Zrotation Yrotation Xrotation
			JOINT Spine3
			{
				OFFSET 0.002191 0.048470 0.027684
				CHANNELS 3 Zrotation Yrotation Xrotation
				JOINT Neck
				{
					OFFSET -0.002856 0.198873 -0.044022
					CHANNELS 3 Zrotation Yrotation Xrotation
					JOINT Head
					{
						OFFSET 0.002981 0.062960 0.049860
						CHANNELS 3 Zrotation Yrotation Xrotation
						End Site
						{
							OFFSET 0.000000 0.000000 0.000000
						}
					}
				}
				JOINT Left_collar
				{
					OFFSET 0.073708 0.112550 -0.033440
					CHANNELS 3 Zrotation Yrotation Xrotation
					JOINT Left_shoulder
					{
						OFFSET 0.083291 0.030786 -0.008013
						CHANNELS 3 Zrotation Yrotation Xrotation
						JOINT Left_elbow
						{
							OFFSET 0.245601 -0.011792 -0.027873
							CHANNELS 3 Zrotation Yrotation Xrotation
							JOINT Left_wrist
							{
								OFFSET 0.232258 0.008622 -0.000487
								CHANNELS 3 Zrotation Yrotation Xrotation
								JOINT Left_palm
								{
									OFFSET 0.077300 -0.009457 -0.012851
									CHANNELS 3 Zrotation Yrotation Xrotation
									End Site
									{
										OFFSET 0.000000 0.000000 0.000000
									}
								}
							}
						}
					}
				}
				JOINT Right_collar
				{
					OFFSET -0.075339 0.110574 -0.037874
					CHANNELS 3 Zrotation Yrotation Xrotation
					JOINT Right_shoulder
					{
						OFFSET -0.086522 0.031207 -0.009986
						CHANNELS 3 Zrotation Yrotation Xrotation
						JOINT Right_elbow
						{
							OFFSET -0.237313 -0.011478 -0.019859
							CHANNELS 3 Zrotation Yrotation Xrotation
							JOINT Right_wrist
							{
								OFFSET -0.237599 0.007976 -0.003742
								CHANNELS 3 Zrotation Yrotation Xrotation
								JOINT Right_palm
								{
									OFFSET -0.076920 -0.006943 -0.009920
									CHANNELS 3 Zrotation Yrotation Xrotation
									End Site
									{
										OFFSET 0.000000 0.000000 0.000000
									}
								}
							}
						}
					}
				}
			}
		}
	}
}
MOTION
Frames: 16
Frame Time: 0.100000
0.000000 0.000000 0.000000 176.803930 25.614545 -23.655103 2.970270 3.991101 20.819320 1.144668 -13.388391 -2.426397 5.160424 6.665592 -7.155062 -8.918115 9.415753 -2.459230 -1.446164 -3.786735 22.861358 -1.642336 4.482291 -3.668452 -6.878564 -7.846969 -9.719267 11.893900 -1.906057 11.912499 -0.299094 0.617194 2.113511 0.903265 -4.873691 8.226060 -1.435143 -3.662986 -0.163375 -1.070317 -22.844959 18.577215 -2.351871 -25.181232 10.064445 -31.865231 0.728904 8.023856 -50.547523 -9.050287 7.159794 3.259306 -16.034667 10.483294 -13.973713 5.307121 -4.679670 -7.936058 -2.890279 -7.934913 32.907548 5.214775 3.794742 53.089260 2.522522 11.399914 -7.373496 15.528418 -1.333670 9.087499 -5.162982 -2.001178 10.568487 8.749518 -2.721794 
-0.001635 -0.000146 -0.000097 176.746296 25.893495 -23.355052 2.957665 3.980644 20.596961 1.101543 -13.400694 -2.597442 5.148496 6.493824 -7.074348 -8.988147 9.351917 -2.380499 -1.443475 -3.850582 22.778640 -1.735407 4.402045 -3.979864 -6.765987 -7.924599 -9.541453 11.732486 -1.872162 11.895362 -0.322213 0.599792 2.109163 0.971280 -5.028230 8.152729 -1.356049 -3.720100 -0.210647 -0.837721 -23.072265 18.019895 -1.917024 -25.443880 9.616846 -31.600934 0.277742 8.103089 -50.397868 -9.145100 7.533922 2.776943 -16.526622 11.756521 -13.840758 5.237603 -3.829431 -8.067824 -2.926470 -8.169687 32.663249 5.405841 3.798172 53.122675 2.303777 11.413344 -7.183901 15.648086 -0.667456 9.083703 -5.080205 -1.595721 10.593602 8.786820 -2.872698 
-0.002642 0.000025 -0.002101 176.741949 26.052654 -22.982582 2.782916 3.926423 20.029539 1.055592 -13.308281 -2.433836 5.259975 6.424239 -7.051877 -9.097689 9.338101 -2.314727 -1.468963 -3.794461 22.286128 -1.792373 4.327027 -3.927896 -6.724755 -7.976312 -9.506159 11.631543 -1.879990 11.908119 -0.244398 0.624006 2.404827 1.027426 -5.077685 8.037348 -1.273438 -3.712808 -0.246798 -0.552181 -22.912380 17.126471 -1.571382 -25.304658 9.025558 -31.502317 -0.241617 8.144863 -50.250979 -9.196630 7.890995 2.234883 -16.720733 12.802915 -13.885878 5.203230 -3.091615 -8.238071 -2.976940 -8.436510 32.551999 5.669693 3.878716 53.070924 2.231370 11.384804 -7.109376 15.615339 -0.397541 9.116759 -4.998750 -1.341524 10.651441 8.824303 -3.075181 
-0.003053 0.000026 -0.004089 176.855876 26.149786 -22.464265 2.688535 3.905911 19.507192 0.907145 -13.266611 -2.588154 5.001782 6.200369 -6.928484 -8.789326 9.271438 -2.299777 -1.602193 -3.813070 21.680163 -1.834809 4.252629 -3.905092 -6.275180 -8.000338 -9.446519 11.022199 -1.728300 11.485331 -0.054159 0.627169 2.766239 0.974682 -5.014623 7.962461 -1.106434 -3.626909 -0.290364 -0.015039 -21.471154 14.954655 -0.971854 -23.813211 7.378961 -31.432792 -0.522741 7.999167 -50.406412 -8.910169 8.004642 2.081969 -16.929975 13.169390 -13.437357 4.897209 -2.844547 -8.368550 -3.067491 -8.614455 32.265499 5.737309 3.993267 53.099166 2.076679 11.429481 -7.084165 16.089651 -0.302724 8.927741 -4.730317 -1.414098 10.748843 8.796537 -3.311745 
-0.002678 -0.000067 -0.006592 177.010877 26.851550 -21.874023 2.551838 3.977910 18.937345 0.801986 -13.378323 -3.011513 4.431044 5.631908 -6.586220 -8.303300 9.112506 -2.274585 -1.843899 -3.993502 20.949346 -1.941912 3.988038 -3.671933 -5.575245 -8.080320 -9.464826 10.153230 -1.591476 10.557091 0.296685 0.623495 3.392059 0.823823 -4.882858 7.871946 -0.711368 -3.485127 -0.467543 0.981192 -17.723748 10.436750 -0.019675 -19.818695 3.727523 -31.483385 -0.993457 7.476914 -50.608003 -8.281458 8.026500 1.785949 -16.914436 13.748121 -12.655036 4.401610 -2.249060 -8.672772 -3.311354 -9.000228 31.880982 5.590514 4.148751 53.054084 1.705845 11.334707 -7.275161 16.748595 -0.612159 8.669652 -4.256144 -1.738290 11.021075 8.745730 -3.761787 
-0.002112 -0.000212 -0.007084 176.957035 28.453571 -21.701625 2.451388 3.749579 18.521609 0.726614 -13.754071 -3.258052 3.892989 5.119712 -6.211889 -7.942773 8.526389 -2.470309 -2.089102 -4.467355 20.753817 -1.875893 3.371570 -3.509923 -5.223108 -8.273687 -9.436828 9.919066 -1.685932 10.015153 0.453202 0.739915 3.453121 0.799046 -4.503696 7.174590 -0.432510 -3.126182 -0.628392 1.157228 -14.015108 9.148606 -0.313913 -16.086904 3.310027 -30.459375 -0.436537 7.210543 -50.406956 -7.327473 8.743102 0.993494 -20.191718 16.555987 -12.184668 3.055789 -1.923263 -8.679084 -3.322277 -8.960288 31.406496 5.050098 4.473291 52.357355 1.638713 11.377134 -6.525771 16.595974 0.160220 8.705389 -3.738850 -1.724321 10.945414 8.528237 -3.946789 
0.001724 -0.000742 -0.003356 176.459406 29.202788 -22.749071 2.695393 3.142699 19.383145 1.229225 -14.212151 -3.389689 2.813788 5.758950 -6.673370 -6.687614 7.037740 -2.451119 -1.819145 -4.852433 21.767071 -1.746201 3.032599 -3.424118 -4.682447 -7.960090 -9.703453 10.491066 -2.642272 9.699089 0.002845 1.282267 3.195387 1.926614 -3.310416 7.127857 0.443577 -2.053770 -0.022848 1.220949 -12.709030 9.364891 -1.157369 -15.193292 3.456417 -26.160809 4.310284 7.924115 -48.414229 -3.508333 11.244019 -3.159950 -43.675336 26.615697 -9.401614 -1.026849 -6.051098 -8.539540 -2.820348 -7.055637 30.277846 3.302492 3.591515 49.664738 2.109835 10.703586 -7.571435 23.291879 0.405249 7.130655 -2.613039 -2.179440 10.639961 8.072276 -3.878151 
0.010035 -0.001647 -0.002783 176.076115 28.388108 -27.972024 4.354433 3.409011 25.176439 1.700983 -16.751760 -4.033633 -7.798843 9.374672 -8.257943 6.827751 5.651386 -1.610188 -1.007258 -4.901497 28.092852 -2.226204 2.810486 -5.424126 2.582731 -8.107017 -7.497075 4.472203 -2.968680 3.823374 -0.538728 2.077251 6.427951 3.292895 -2.837109 12.458166 1.731144 -0.537902 -0.181993 2.333248 -10.027208 4.088357 -0.873977 -19.031711 -1.488114 -20.577520 6.909983 6.807167 -39.410875 6.158752 15.262450 -37.480226 -76.590242 71.319506 -1.605323 -7.879823 2.244107 -8.851805 -2.174655 -14.295360 27.705776 5.687482 2.124224 47.341563 2.280336 10.830937 -14.567823 43.084437 -7.353357 -3.510140 0.782191 -7.349420 12.147338 6.854554 -8.175804 
0.020113 -0.001796 -0.005903 176.142092 28.746686 -27.501770 4.339341 2.805122 23.507113 1.782920 -16.497252 -3.190999 -10.410813 9.819920 -8.631447 11.557057 4.900760 -0.893732 -0.169961 -4.464982 26.879116 -2.112910 2.079831 -5.051187 3.467238 -8.369433 -7.448045 2.768670 -3.770681 3.389413 -1.426714 2.680365 5.406029 4.982155 -3.292080 13.535863 2.463833 0.130477 -0.198216 2.370568 -7.879220 2.671116 -1.662698 -20.625904 -4.827905 -14.034760 8.868040 7.826655 -32.619530 11.733817 17.458530 -125.710367 -70.794788 162.588477 -1.842954 -10.391233 -0.879975 -11.212302 -2.572876 -16.877798 24.426680 5.603212 -0.304668 47.983097 5.422893 11.788290 -41.124544 65.065654 -29.544209 -4.781973 2.563254 -13.125758 14.099555 7.328565 -9.547898 
0.030790 -0.000666 -0.012440 176.331800 30.147101 -27.392267 3.963639 2.587046 21.803678 2.260811 -16.147758 -1.947430 -12.549711 8.688996 -8.524111 15.642120 4.975191 -0.643296 0.181331 -4.213175 26.162684 -1.995659 1.020261 -4.756075 3.919572 -8.383093 -7.401273 1.313282 -4.729881 3.101374 -1.551746 3.384444 5.164471 6.114885 -4.568229 14.892304 2.996008 0.286834 -0.507726 2.343726 -6.269875 0.610057 -2.713421 -21.584197 -7.575903 -11.884864 6.210131 8.854600 -32.328979 14.961995 20.778217 -129.535268 -61.012392 167.568592 1.555109 -11.706864 -1.667744 -15.120254 -4.503284 -20.876310 22.082500 8.498593 -2.426382 50.277786 11.242971 13.603189 -114.439815 68.241545 -99.288974 -10.221965 4.510740 -17.724823 17.459276 9.179889 -11.901851 
0.042559 0.001610 -0.021482 177.141197 31.777571 -27.796275 3.509079 3.153195 21.023739 2.581596 -15.683555 -0.958560 -13.475918 6.112496 -7.476930 16.976421 7.118003 -0.563120 -0.041434 -3.966524 26.179378 -2.104429 -0.500033 -4.358579 2.379362 -7.480947 -7.442602 3.032340 -6.556836 3.213145 -0.531258 3.752033 6.991078 5.150091 -5.222033 16.139930 2.515557 0.507441 -1.538483 3.316093 -6.255116 -1.230067 -3.056670 -21.283065 -9.867003 -15.113972 0.928431 9.119469 -36.302234 15.999201 21.832138 -122.353576 -64.202682 159.980412 7.063163 -12.275669 1.329702 -17.612004 -6.156111 -24.147281 20.528360 15.086450 -3.577397 53.960656 19.425575 16.764607 -146.275377 54.122707 -127.393681 -16.644341 6.255185 -19.401546 19.216511 10.676573 -12.662208 
0.057302 0.003147 -0.027699 177.458108 33.562823 -29.013478 3.643193 3.949303 21.280871 3.181049 -16.411314 -0.659711 -13.669447 4.243648 -6.228655 16.323012 9.120522 -0.867514 -0.240415 -4.455272 27.093368 -2.025599 -1.723462 -4.316132 0.818841 -6.145317 -7.127323 6.525631 -8.817699 2.789478 0.249915 4.589368 9.205605 4.155380 -5.227939 16.214396 2.091405 1.312001 -2.144087 4.229943 -6.738759 -0.886182 -2.596694 -21.992445 -11.123893 -15.877023 -3.977518 7.686039 -37.210740 14.041542 21.194000 -104.353194 -67.461980 144.289283 16.109001 -16.330107 12.512105 -19.055284 -7.356359 -27.470628 17.921058 21.048086 -4.772188 57.599367 25.278862 19.642740 -158.538675 46.004621 -135.007524 -25.529703 8.555562 -16.603886 20.189902 11.837331 -13.314925 
0.072856 0.005566 -0.033316 177.065752 34.916572 -30.664931 4.019114 4.239498 20.957918 3.759720 -17.325176 0.692642 -14.697862 3.860565 -5.855281 17.503958 9.319220 -0.962109 0.253106 -5.037875 27.703059 -1.986047 -1.956016 -3.922183 0.315579 -6.361253 -7.139105 7.111340 -8.748101 2.467704 0.683359 4.970000 10.765597 3.809959 -6.000397 16.722144 2.388478 1.343936 -1.959196 3.865080 -6.456893 -0.309897 -2.018522 -21.336927 -12.408186 -16.211245 -9.866945 8.018492 -39.257542 13.250664 23.138422 -83.155731 -66.308850 121.123042 30.210663 -18.810573 14.082186 -20.456299 -8.894978 -29.647746 15.769003 26.709292 -5.181628 61.681079 28.529173 24.263457 -165.651834 44.112283 -142.188970 -36.886962 8.843068 -17.061895 21.446219 13.280242 -15.152375 
0.089108 0.007225 -0.036367 176.870938 35.492719 -31.461701 4.451681 4.037817 20.174119 3.880861 -17.754724 1.728919 -15.318710 3.864174 -5.209532 18.454117 10.450754 -1.204916 1.128527 -5.023265 27.154520 -1.935193 -2.377816 -2.968574 -0.377054 -6.501078 -6.994639 7.721204 -9.070178 1.559203 0.390526 5.115724 11.718335 3.831076 -6.117433 17.587468 2.818568 1.348604 -1.826267 3.778053 -6.036018 -0.049773 -0.666749 -21.501113 -15.330774 -14.641480 -11.445523 8.491003 -39.402903 12.926246 23.360817 -85.407638 -65.703349 122.780810 31.379341 -18.189609 13.325752 -19.492943 -8.473953 -29.977786 14.522536 28.473228 -4.819941 67.281026 27.383142 28.356547 -170.337892 43.255380 -147.049631 -38.250900 7.529287 -20.226795 21.238035 13.274908 -15.672035 
0.103154 0.009786 -0.041996 176.577623 36.189233 -31.841729 4.665396 3.859547 18.651945 4.047781 -18.003725 2.989007 -15.832849 3.760142 -4.698617 18.906367 10.162186 -1.456219 1.850226 -5.225061 26.237262 -1.971285 -2.768287 -2.379641 -0.590379 -6.505331 -6.925320 7.467650 -9.727391 1.093087 0.609398 4.982628 13.077819 3.769320 -6.685573 17.788993 3.309990 1.108908 -1.703473 2.651333 -5.251775 -0.584535 0.009723 -19.744071 -18.298601 -13.788225 -13.318863 8.843978 -41.477925 13.164726 23.377217 -80.184634 -64.862931 117.578603 33.586154 -17.787536 12.710039 -19.413684 -8.725142 -30.445949 12.699400 29.249812 -5.082151 68.685227 26.968409 28.254023 -170.657552 43.628232 -147.261795 -39.294057 6.919769 -20.970963 21.310764 13.498983 -16.211710 
0.117247 0.011779 -0.047584 176.435673 37.274577 -31.438596 4.649265 3.582788 16.533226 4.062052 -18.042986 3.811505 -16.699983 3.762076 -3.776342 20.171300 9.750904 -1.917932 2.498519 -5.118786 24.180928 -2.019016 -3.343346 -1.056456 -0.303073 -7.083084 -7.090703 5.521601 -9.723533 0.732066 0.819974 4.798790 14.220110 3.569556 -7.191517 17.879515 3.611735 0.987111 -1.762216 1.507522 -5.432507 -1.639153 1.414660 -19.177870 -21.108315 -12.408876 -16.032364 9.555843 -42.717359 13.754591 23.627591 -78.769059 -64.484172 116.269600 35.094107 -17.212892 12.207819 -19.584384 -9.080589 -31.352376 10.265759 31.125013 -5.079877 70.062618 26.452088 27.808881 -170.761696 43.334466 -147.099304 -40.186406 6.535903 -21.375675 21.388940 13.725886 -17.069471 
